<svg width="606" height="112" viewBox="0 0 606 112" fill="none" xmlns="http://www.w3.org/2000/svg">
<path d="M15.36 88H8.64V25.6H23.136C28.128 25.6 31.904 26.784 34.464 29.152C37.088 31.52 38.4 34.816 38.4 39.04V55.36C38.4 59.648 37.12 62.976 34.56 65.344C32 67.648 28.192 68.8 23.136 68.8H15.36V88ZM31.68 55.36V39.04C31.68 36.608 30.944 34.72 29.472 33.376C28 32.032 25.888 31.36 23.136 31.36H15.36V63.04H23.136C28.832 63.04 31.68 60.48 31.68 55.36ZM60.4763 88H53.7563V25.6H56.6363L59.4203 32.704C61.4683 27.008 64.7323 24.16 69.2123 24.16C76.8283 24.16 80.6363 28.32 80.6363 36.64V42.88H74.2043V36.256C74.2043 32.032 72.4443 29.92 68.9243 29.92C66.8123 29.92 64.8603 31.136 63.0683 33.568C61.3403 36 60.4763 39.52 60.4763 44.128V88ZM121.954 88H119.074L116.578 81.856C115.234 84.16 113.474 86.016 111.298 87.424C109.122 88.768 106.722 89.44 104.098 89.44C94.8818 89.44 90.2738 84.96 90.2738 76V66.4C90.2738 57.44 94.8818 52.96 104.098 52.96H115.234V37.216C115.234 34.912 114.498 33.12 113.026 31.84C111.554 30.56 109.378 29.92 106.498 29.92C100.802 29.92 97.9538 32.352 97.9538 37.216V42.88H91.2338V37.6C91.2338 33.312 92.4818 30.016 94.9778 27.712C97.5378 25.344 101.378 24.16 106.498 24.16C111.618 24.16 115.458 25.344 118.018 27.712C120.642 30.016 121.954 33.312 121.954 37.6V88ZM115.234 58.72H104.098C101.41 58.72 99.5538 59.392 98.5298 60.736C97.5058 62.08 96.9938 63.968 96.9938 66.4V76C96.9938 78.432 97.5058 80.32 98.5298 81.664C99.5538 83.008 101.41 83.68 104.098 83.68C106.786 83.68 109.282 82.656 111.586 80.608C113.89 78.496 115.106 76.416 115.234 74.368V58.72ZM138.754 25.6H159.874V31.36H145.474V77.344C145.474 79.136 145.922 80.64 146.818 81.856C147.778 83.072 149.09 83.68 150.754 83.68C152.482 83.68 153.794 83.104 154.69 81.952C155.586 80.736 156.034 79.2 156.034 77.344V65.92H162.754V76.96C162.754 80.992 161.666 84.096 159.49 86.272C157.378 88.384 154.498 89.44 150.85 89.44C147.202 89.44 144.258 88.384 142.018 86.272C139.842 84.096 138.754 80.992 138.754 76.96V25.6ZM182.914 88H176.194V25.6H182.914V88ZM208.885 88H202.165V25.6H208.885V52.096L225.589 25.6H233.077L216.085 52.48L234.229 88H226.837L212.053 58.912L208.885 64V88ZM274.697 88H267.977V25.6H274.697V52.096L291.401 25.6H298.889L281.897 52.48L300.041 88H292.649L277.865 58.912L274.697 64V88ZM310.609 76V25.6H317.329V76C317.329 78.432 317.841 80.32 318.865 81.664C319.953 83.008 321.905 83.68 324.721 83.68C327.537 83.68 330.129 82.592 332.497 80.416C334.865 78.24 336.049 76.128 336.049 74.08V25.6H342.769V88H339.889L337.393 81.856C335.985 84.16 334.161 86.016 331.921 87.424C329.745 88.768 327.345 89.44 324.721 89.44C315.313 89.44 310.609 84.96 310.609 76ZM362.006 88V25.6H368.726V82.24H386.294V88H362.006ZM404.635 88H397.915V25.6H404.635V52.096L421.339 25.6H428.827L411.835 52.48L429.979 88H422.587L407.803 58.912L404.635 64V88ZM471.266 88H468.386L465.89 81.856C464.546 84.16 462.786 86.016 460.61 87.424C458.434 88.768 456.034 89.44 453.41 89.44C444.194 89.44 439.586 84.96 439.586 76V66.4C439.586 57.44 444.194 52.96 453.41 52.96H464.546V37.216C464.546 34.912 463.81 33.12 462.338 31.84C460.866 30.56 458.69 29.92 455.81 29.92C450.114 29.92 447.266 32.352 447.266 37.216V42.88H440.546V37.6C440.546 33.312 441.794 30.016 444.29 27.712C446.85 25.344 450.69 24.16 455.81 24.16C460.93 24.16 464.77 25.344 467.33 27.712C469.954 30.016 471.266 33.312 471.266 37.6V88ZM464.546 58.72H453.41C450.722 58.72 448.866 59.392 447.842 60.736C446.818 62.08 446.306 63.968 446.306 66.4V76C446.306 78.432 446.818 80.32 447.842 81.664C448.866 83.008 450.722 83.68 453.41 83.68C456.098 83.68 458.594 82.656 460.898 80.608C463.202 78.496 464.418 76.416 464.546 74.368V58.72ZM496.226 88H489.506V25.6H492.386L495.17 32.704C497.218 27.008 500.482 24.16 504.962 24.16C512.578 24.16 516.386 28.32 516.386 36.64V42.88H509.954V36.256C509.954 32.032 508.194 29.92 504.674 29.92C502.562 29.92 500.61 31.136 498.818 33.568C497.09 36 496.226 39.52 496.226 44.128V88ZM534.664 88H527.944V25.6H530.824L533.224 31.84C536.296 26.72 540.552 24.16 545.992 24.16C555.4 24.16 560.104 28.64 560.104 37.6V88H553.384V37.6C553.384 35.168 552.84 33.28 551.752 31.936C550.728 30.592 548.808 29.92 545.992 29.92C543.176 29.92 540.584 31.008 538.216 33.184C535.848 35.36 534.664 37.472 534.664 39.52V88ZM585.101 88H578.381V25.6H585.101V88Z" fill="#FAFAFA"/>
</svg>
