<svg width="578" height="66" viewBox="0 0 578 66" fill="none" xmlns="http://www.w3.org/2000/svg">
<path d="M7.36 64H0.64V1.6H15.136C20.128 1.6 23.904 2.784 26.464 5.152C29.088 7.52 30.4 10.816 30.4 15.04V31.36C30.4 35.648 29.12 38.976 26.56 41.344C24 43.648 20.192 44.8 15.136 44.8H7.36V64ZM23.68 31.36V15.04C23.68 12.608 22.944 10.72 21.472 9.376C20 8.032 17.888 7.36 15.136 7.36H7.36V39.04H15.136C20.832 39.04 23.68 36.48 23.68 31.36ZM52.4763 64H45.7563V1.6H48.6363L51.4203 8.704C53.4683 3.008 56.7323 0.159998 61.2123 0.159998C68.8283 0.159998 72.6363 4.32 72.6363 12.64V18.88H66.2043V12.256C66.2043 8.032 64.4443 5.92 60.9243 5.92C58.8123 5.92 56.8603 7.136 55.0683 9.568C53.3403 12 52.4763 15.52 52.4763 20.128V64ZM113.954 64H111.074L108.578 57.856C107.234 60.16 105.474 62.016 103.298 63.424C101.122 64.768 98.7218 65.44 96.0978 65.44C86.8818 65.44 82.2738 60.96 82.2738 52V42.4C82.2738 33.44 86.8818 28.96 96.0978 28.96H107.234V13.216C107.234 10.912 106.498 9.12 105.026 7.84C103.554 6.56 101.378 5.92 98.4978 5.92C92.8018 5.92 89.9538 8.352 89.9538 13.216V18.88H83.2338V13.6C83.2338 9.312 84.4818 6.016 86.9778 3.712C89.5378 1.344 93.3778 0.159998 98.4978 0.159998C103.618 0.159998 107.458 1.344 110.018 3.712C112.642 6.016 113.954 9.312 113.954 13.6V64ZM107.234 34.72H96.0978C93.4098 34.72 91.5538 35.392 90.5298 36.736C89.5058 38.08 88.9938 39.968 88.9938 42.4V52C88.9938 54.432 89.5058 56.32 90.5298 57.664C91.5538 59.008 93.4098 59.68 96.0978 59.68C98.7858 59.68 101.282 58.656 103.586 56.608C105.89 54.496 107.106 52.416 107.234 50.368V34.72ZM130.754 1.6H151.874V7.36H137.474V53.344C137.474 55.136 137.922 56.64 138.818 57.856C139.778 59.072 141.09 59.68 142.754 59.68C144.482 59.68 145.794 59.104 146.69 57.952C147.586 56.736 148.034 55.2 148.034 53.344V41.92H154.754V52.96C154.754 56.992 153.666 60.096 151.49 62.272C149.378 64.384 146.498 65.44 142.85 65.44C139.202 65.44 136.258 64.384 134.018 62.272C131.842 60.096 130.754 56.992 130.754 52.96V1.6ZM174.914 64H168.194V1.6H174.914V64ZM200.885 64H194.165V1.6H200.885V28.096L217.589 1.6H225.077L208.085 28.48L226.229 64H218.837L204.053 34.912L200.885 40V64ZM266.697 64H259.977V1.6H266.697V28.096L283.401 1.6H290.889L273.897 28.48L292.041 64H284.649L269.865 34.912L266.697 40V64ZM302.609 52V1.6H309.329V52C309.329 54.432 309.841 56.32 310.865 57.664C311.953 59.008 313.905 59.68 316.721 59.68C319.537 59.68 322.129 58.592 324.497 56.416C326.865 54.24 328.049 52.128 328.049 50.08V1.6H334.769V64H331.889L329.393 57.856C327.985 60.16 326.161 62.016 323.921 63.424C321.745 64.768 319.345 65.44 316.721 65.44C307.313 65.44 302.609 60.96 302.609 52ZM354.006 64V1.6H360.726V58.24H378.294V64H354.006ZM396.635 64H389.915V1.6H396.635V28.096L413.339 1.6H420.827L403.835 28.48L421.979 64H414.587L399.803 34.912L396.635 40V64ZM463.266 64H460.386L457.89 57.856C456.546 60.16 454.786 62.016 452.61 63.424C450.434 64.768 448.034 65.44 445.41 65.44C436.194 65.44 431.586 60.96 431.586 52V42.4C431.586 33.44 436.194 28.96 445.41 28.96H456.546V13.216C456.546 10.912 455.81 9.12 454.338 7.84C452.866 6.56 450.69 5.92 447.81 5.92C442.114 5.92 439.266 8.352 439.266 13.216V18.88H432.546V13.6C432.546 9.312 433.794 6.016 436.29 3.712C438.85 1.344 442.69 0.159998 447.81 0.159998C452.93 0.159998 456.77 1.344 459.33 3.712C461.954 6.016 463.266 9.312 463.266 13.6V64ZM456.546 34.72H445.41C442.722 34.72 440.866 35.392 439.842 36.736C438.818 38.08 438.306 39.968 438.306 42.4V52C438.306 54.432 438.818 56.32 439.842 57.664C440.866 59.008 442.722 59.68 445.41 59.68C448.098 59.68 450.594 58.656 452.898 56.608C455.202 54.496 456.418 52.416 456.546 50.368V34.72ZM488.226 64H481.506V1.6H484.386L487.17 8.704C489.218 3.008 492.482 0.159998 496.962 0.159998C504.578 0.159998 508.386 4.32 508.386 12.64V18.88H501.954V12.256C501.954 8.032 500.194 5.92 496.674 5.92C494.562 5.92 492.61 7.136 490.818 9.568C489.09 12 488.226 15.52 488.226 20.128V64ZM526.664 64H519.944V1.6H522.824L525.224 7.84C528.296 2.72 532.552 0.159998 537.992 0.159998C547.4 0.159998 552.104 4.64 552.104 13.6V64H545.384V13.6C545.384 11.168 544.84 9.28 543.752 7.936C542.728 6.592 540.808 5.92 537.992 5.92C535.176 5.92 532.584 7.008 530.216 9.184C527.848 11.36 526.664 13.472 526.664 15.52V64ZM577.101 64H570.381V1.6H577.101V64Z" fill="black"/>
</svg>
